<svg width="369" height="98" viewBox="0 0 369 98" fill="none" xmlns="http://www.w3.org/2000/svg">
<g opacity="0.4">
<path d="M9.20729 65.7662H4.02187V56.9753H17.074L21.1211 69.3081C21.4078 68.5267 21.7198 67.6688 22.057 66.7345C22.4112 65.8002 22.7569 64.8489 23.0941 63.8806C23.4314 62.8953 23.7518 61.9186 24.0553 60.9503C24.3757 59.982 24.654 59.0732 24.89 58.2238C25.1261 57.3575 25.3116 56.5761 25.4465 55.8796C25.5983 55.1831 25.6742 54.614 25.6742 54.1723C25.6742 51.93 25.0924 50.1718 23.9288 48.8978C22.7821 47.6067 21.0199 46.9612 18.6422 46.9612C16.703 46.9612 15.1431 47.5388 13.9627 48.6939C12.7823 49.8491 11.956 51.5308 11.4838 53.7392H0C0.404716 51.3949 1.13826 49.246 2.20064 47.2925C3.26302 45.3389 4.62051 43.6572 6.2731 42.2472C7.92569 40.8373 9.85653 39.7416 12.0656 38.9602C14.2915 38.1788 16.762 37.7881 19.477 37.7881C20.8092 37.7881 22.1498 37.8985 23.4988 38.1193C24.8648 38.3232 26.1801 38.6714 27.4448 39.164C28.7096 39.6397 29.8984 40.2767 31.0114 41.0751C32.1243 41.8565 33.094 42.8248 33.9203 43.9799C34.7466 45.1181 35.3958 46.4601 35.868 48.0059C36.3401 49.5518 36.5762 51.327 36.5762 53.3315C36.5762 54.2658 36.4329 55.3869 36.1462 56.695C35.8764 57.986 35.497 59.4045 35.0079 60.9503C34.5358 62.4792 33.9793 64.1015 33.3385 65.8172C32.6977 67.5329 32.0147 69.2826 31.2896 71.0663C30.5645 72.8329 29.8141 74.6081 29.0384 76.3918C28.2795 78.1585 27.5376 79.8657 26.8124 81.5135H14.7974L9.20729 65.7662Z" fill="#DA634B"/>
<path d="M12.2427 32.6668V20.8691H21.5764V24.5383H41.7869V32.6668H12.2427Z" fill="#DA634B"/>
<path d="M62.9081 73.2582C64.4932 73.2582 65.817 73.0034 66.8793 72.4938C67.9417 71.9842 68.7933 71.3217 69.4341 70.5063C70.0749 69.6909 70.5302 68.7822 70.8 67.7799C71.0698 66.7607 71.2048 65.7413 71.2048 64.7221V38.7314H81.778V63.9831C81.778 65.546 81.6599 67.0918 81.4238 68.6207C81.2046 70.1326 80.8083 71.5765 80.235 72.9525C79.6785 74.3284 78.9365 75.594 78.009 76.7491C77.0816 77.9043 75.918 78.9065 74.5184 79.7559C73.1187 80.6053 71.4577 81.2679 69.5353 81.7435C67.6298 82.2192 65.4207 82.4569 62.9081 82.4569C60.3786 82.4569 58.1527 82.2192 56.2303 81.7435C54.3079 81.2679 52.6468 80.6053 51.2472 79.7559C49.8644 78.9065 48.7093 77.9043 47.7818 76.7491C46.8543 75.594 46.1124 74.3284 45.5559 72.9525C45.0162 71.5765 44.6284 70.1326 44.3923 68.6207C44.1731 67.0918 44.0635 65.546 44.0635 63.9831V38.7314H54.5102V64.7221C54.5102 65.7413 54.6451 66.7607 54.9149 67.7799C55.1847 68.7822 55.64 69.6909 56.2808 70.5063C56.9385 71.3217 57.807 71.9842 58.8862 72.4938C59.9655 73.0034 61.3061 73.2582 62.9081 73.2582Z" fill="#DA634B"/>
<path d="M100.041 81.5141L91.9716 47.2931H86.7861V38.7314H101.078L106.769 65.2317L112.587 38.7314H123.565L113.523 81.5141H100.041Z" fill="#DA634B"/>
<path d="M96.7271 32.6668V20.8691H106.061V24.5383H126.271V32.6668H96.7271Z" fill="#DA634B"/>
<path d="M103.253 13.7852V6.87988H99.6362V0H111.348V6.37025C112.461 6.23436 113.481 5.97955 114.408 5.60582C115.319 5.2321 116.103 4.76495 116.761 4.20437C117.401 3.64379 117.907 3.00676 118.278 2.29329C118.632 1.57982 118.809 0.815393 118.809 0H127.41C127.41 1.78367 127.047 3.50789 126.322 5.17265C125.614 6.82042 124.535 8.28133 123.084 9.55538C121.634 10.8294 119.821 11.8572 117.646 12.6386C115.471 13.403 112.916 13.7852 109.982 13.7852H103.253Z" fill="#DA634B"/>
<path d="M151.743 60.1098C151.743 57.8505 151.575 55.8885 151.237 54.2237C150.9 52.5589 150.411 51.183 149.77 50.0958C149.129 48.9916 148.345 48.1762 147.418 47.6496C146.49 47.123 145.445 46.8597 144.281 46.8597C143.472 46.8597 142.713 47.0296 142.005 47.3693C141.297 47.6921 140.656 48.1762 140.082 48.8217C139.526 49.4673 139.054 50.2826 138.666 51.2679C138.278 52.2532 138.008 53.3913 137.856 54.6824H126.98C127.182 52.2022 127.739 49.9259 128.649 47.8535C129.56 45.764 130.757 43.9718 132.241 42.477C133.742 40.9651 135.504 39.793 137.528 38.9606C139.568 38.1112 141.819 37.6865 144.281 37.6865C147.435 37.6865 150.167 38.2301 152.477 39.3173C154.804 40.3875 156.726 41.9079 158.244 43.8784C159.762 45.832 160.883 48.1847 161.608 50.9367C162.35 53.6886 162.721 56.7463 162.721 60.1098C162.721 63.4733 162.35 66.531 161.608 69.283C160.883 72.0349 159.762 74.3877 158.244 76.3412C156.726 78.2948 154.804 79.8066 152.477 80.8769C150.167 81.9301 147.435 82.4567 144.281 82.4567C141.819 82.4567 139.568 82.0405 137.528 81.2081C135.504 80.3757 133.742 79.2121 132.241 77.7172C130.757 76.2053 129.56 74.4047 128.649 72.3152C127.739 70.2258 127.182 67.9325 126.98 65.4354H137.856C138.008 66.7604 138.278 67.9155 138.666 68.9008C139.054 69.886 139.526 70.7014 140.082 71.347C140.656 71.9925 141.297 72.4766 142.005 72.7994C142.713 73.1051 143.472 73.258 144.281 73.258C145.445 73.258 146.49 73.0032 147.418 72.4936C148.345 71.967 149.129 71.1686 149.77 70.0984C150.411 69.0282 150.9 67.6692 151.237 66.0214C151.575 64.3567 151.743 62.3861 151.743 60.1098Z" fill="#DA634B"/>
<path d="M177.595 65.6394C177.763 68.2724 178.471 70.226 179.719 71.5C180.967 72.7571 182.712 73.3856 184.955 73.3856C185.579 73.3856 186.237 73.3177 186.928 73.1818C187.637 73.0459 188.277 72.8166 188.851 72.4938C189.441 72.171 189.922 71.7379 190.292 71.1943C190.68 70.6337 190.874 69.9372 190.874 69.1048C190.874 68.4933 190.714 67.9582 190.394 67.4995C190.073 67.0239 189.584 66.5737 188.927 66.149C188.286 65.7243 187.468 65.2997 186.473 64.875C185.495 64.4503 184.331 63.9746 182.982 63.448C180.942 62.6666 179.028 61.8852 177.24 61.1038C175.47 60.3224 173.927 59.439 172.611 58.4538C171.296 57.4515 170.259 56.2879 169.5 54.9629C168.758 53.6378 168.387 52.0495 168.387 50.1979C168.387 48.686 168.59 47.3355 168.994 46.1464C169.416 44.9403 169.989 43.8871 170.714 42.9868C171.456 42.0695 172.316 41.288 173.294 40.6425C174.272 39.997 175.326 39.4704 176.456 39.0627C177.603 38.655 178.792 38.3577 180.023 38.1709C181.254 37.984 182.485 37.8906 183.716 37.8906C186.094 37.8906 188.294 38.1454 190.318 38.655C192.341 39.1646 194.095 40.0225 195.579 41.2286C197.063 42.4347 198.243 44.0485 199.12 46.07C200.014 48.0915 200.512 50.6141 200.613 53.6378H190.343C190.309 52.3978 190.124 51.3446 189.787 50.4782C189.466 49.5949 189.028 48.8814 188.471 48.3378C187.932 47.7772 187.299 47.378 186.574 47.1402C185.866 46.8854 185.124 46.758 184.348 46.758C183.775 46.758 183.185 46.8259 182.578 46.9618C181.987 47.0807 181.439 47.2761 180.933 47.5479C180.444 47.8027 180.04 48.1424 179.719 48.5671C179.416 48.9918 179.264 49.5014 179.264 50.096C179.264 50.5716 179.407 51.0048 179.694 51.3955C179.981 51.7862 180.428 52.1769 181.035 52.5676C181.659 52.9583 182.46 53.3576 183.438 53.7652C184.433 54.1729 185.63 54.6231 187.029 55.1157C189.93 56.169 192.316 57.2137 194.188 58.2499C196.077 59.2861 197.561 60.3648 198.64 61.486C199.736 62.5902 200.495 63.7623 200.916 65.0024C201.338 66.2255 201.549 67.5505 201.549 68.9774C201.549 71.4576 201.11 73.5555 200.233 75.2712C199.356 76.97 198.151 78.3459 196.616 79.3992C195.098 80.4524 193.303 81.2083 191.228 81.667C189.154 82.1256 186.928 82.355 184.551 82.355C182.19 82.355 179.981 82.0492 177.923 81.4376C175.866 80.8091 174.053 79.8323 172.485 78.5073C170.934 77.1653 169.677 75.4411 168.716 73.3347C167.755 71.2113 167.198 68.6462 167.047 65.6394H177.595Z" fill="#DA634B"/>
<path d="M175.95 32.6668V20.8691H185.284V24.5383H205.495V32.6668H175.95Z" fill="#DA634B"/>
<path d="M219.685 98.0001C219.685 97.3206 219.626 96.7006 219.508 96.14C219.39 95.5794 219.221 95.0953 219.002 94.6876C218.783 94.2799 218.513 93.9656 218.193 93.7448C217.872 93.5239 217.501 93.4135 217.08 93.4135C216.641 93.4135 216.253 93.5324 215.916 93.7702C215.596 94.0081 215.317 94.3308 215.081 94.7385C214.862 95.1462 214.694 95.6304 214.575 96.1909C214.457 96.7515 214.398 97.3546 214.398 98.0001H207.544C207.544 96.3353 207.687 94.8914 207.974 93.6683C208.26 92.4622 208.64 91.4345 209.112 90.5851C209.601 89.7358 210.157 89.0478 210.781 88.5212C211.405 87.9946 212.046 87.5869 212.704 87.2981C213.378 87.0263 214.044 86.8394 214.702 86.7375C215.376 86.6526 216 86.6186 216.574 86.6356C217.619 86.6865 218.597 86.9328 219.508 87.3745C220.419 87.8162 221.135 88.4022 221.658 89.1327C221.86 88.8269 222.113 88.5212 222.417 88.2154C222.72 87.9096 223.049 87.6378 223.403 87.4C223.774 87.1792 224.162 86.9923 224.567 86.8394C224.972 86.7035 225.376 86.6356 225.781 86.6356C226.169 86.6356 226.548 86.7035 226.919 86.8394C227.307 86.9923 227.67 87.1792 228.007 87.4C228.344 87.6208 228.648 87.8672 228.918 88.1389C229.204 88.4107 229.44 88.6741 229.626 88.9289V84.9538H238.732V98.0001H230.359C230.359 97.3206 230.3 96.7006 230.182 96.14C230.064 95.5794 229.887 95.0953 229.651 94.6876C229.432 94.2799 229.154 93.9656 228.816 93.7448C228.479 93.5239 228.091 93.4135 227.653 93.4135C227.214 93.4135 226.818 93.5324 226.464 93.7702C226.11 94.0251 225.815 94.3563 225.579 94.764C225.343 95.1887 225.157 95.6728 225.022 96.2164C224.904 96.777 224.845 97.3716 224.845 98.0001H219.685ZM214.803 65.7666H209.618V56.9757H222.67L226.717 69.3085C227.004 68.5271 227.316 67.6692 227.653 66.7349C228.007 65.8006 228.353 64.8493 228.69 63.881C229.027 62.8957 229.348 61.919 229.651 60.9507C229.972 59.9824 230.25 59.0736 230.486 58.2242C230.722 57.3579 230.907 56.5765 231.042 55.88C231.194 55.1835 231.27 54.6144 231.27 54.1727C231.27 51.9304 230.688 50.1722 229.525 48.8982C228.378 47.6071 226.616 46.9616 224.238 46.9616C222.299 46.9616 220.739 47.5392 219.559 48.6943C218.378 49.8495 217.552 51.5312 217.08 53.7396H205.596C206.001 51.3953 206.734 49.2464 207.796 47.2929C208.859 45.3393 210.216 43.6576 211.869 42.2476C213.522 40.8377 215.452 39.742 217.661 38.9606C219.887 38.1792 222.358 37.7885 225.073 37.7885C226.169 37.7885 227.273 37.8649 228.386 38.0178C229.499 38.1707 230.604 38.4085 231.7 38.7312C232.054 38.5953 232.375 38.383 232.661 38.0942C232.965 37.8054 233.226 37.4827 233.445 37.1259C233.665 36.7522 233.833 36.353 233.951 35.9283C234.069 35.4867 234.145 35.062 234.179 34.6543H245.258C245.224 35.5716 245.098 36.5229 244.879 37.5082C244.676 38.4934 244.364 39.4447 243.943 40.362C243.521 41.2794 242.981 42.1287 242.324 42.9101C241.683 43.6746 240.907 44.2946 239.997 44.7702C240.671 45.8744 241.202 47.1315 241.59 48.5414C241.978 49.9514 242.172 51.5482 242.172 53.3319C242.172 54.2662 242.029 55.3873 241.742 56.6954C241.472 57.9864 241.093 59.4049 240.604 60.9507C240.132 62.4796 239.575 64.1019 238.934 65.8176C238.294 67.5333 237.611 69.283 236.885 71.0667C236.16 72.8333 235.41 74.6085 234.634 76.3922C233.875 78.1589 233.133 79.8661 232.408 81.5139H220.393L214.803 65.7666Z" fill="#DA634B"/>
<path d="M268.302 73.2582C269.887 73.2582 271.21 73.0034 272.273 72.4938C273.335 71.9842 274.187 71.3217 274.828 70.5063C275.468 69.6909 275.924 68.7822 276.194 67.7799C276.463 66.7607 276.598 65.7413 276.598 64.7221V38.7314H287.171V63.9831C287.171 65.546 287.053 67.0918 286.817 68.6207C286.598 70.1326 286.202 71.5765 285.628 72.9525C285.072 74.3284 284.33 75.594 283.403 76.7491C282.475 77.9043 281.311 78.9065 279.912 79.7559C278.512 80.6053 276.851 81.2679 274.929 81.7435C273.023 82.2192 270.814 82.4569 268.302 82.4569C265.772 82.4569 263.546 82.2192 261.624 81.7435C259.701 81.2679 258.04 80.6053 256.641 79.7559C255.258 78.9065 254.103 77.9043 253.175 76.7491C252.248 75.594 251.506 74.3284 250.949 72.9525C250.41 71.5765 250.022 70.1326 249.786 68.6207C249.567 67.0918 249.457 65.546 249.457 63.9831V38.7314H259.904V64.7221C259.904 65.7413 260.039 66.7607 260.308 67.7799C260.578 68.7822 261.034 69.6909 261.674 70.5063C262.332 71.3217 263.2 71.9842 264.28 72.4938C265.359 73.0034 266.7 73.2582 268.302 73.2582Z" fill="#DA634B"/>
<path d="M292.079 53.7392C292.079 51.1571 292.542 48.8808 293.47 46.9103C294.397 44.9227 295.62 43.258 297.138 41.916C298.672 40.557 300.417 39.5293 302.374 38.8328C304.347 38.1363 306.37 37.7881 308.444 37.7881C310.687 37.7881 312.778 38.0853 314.717 38.6799C316.674 39.2744 318.368 40.1833 319.802 41.4064C321.235 42.6125 322.356 44.1498 323.166 46.0184C323.992 47.87 324.405 50.0614 324.405 52.5925V81.5135H313.832V53.9685C313.832 51.5053 313.368 49.7217 312.441 48.6175C311.53 47.5133 310.198 46.9612 308.444 46.9612C306.876 46.9612 305.603 47.5303 304.625 48.6684C303.664 49.7896 303.107 51.4799 302.955 53.7392H292.079Z" fill="#DA634B"/>
<path d="M358.528 61.8931C357.381 62.6236 356.218 63.1587 355.037 63.4984C353.874 63.8212 352.794 64.0845 351.8 64.2883C350.585 64.5261 349.371 64.764 348.157 65.0018C346.943 65.2396 345.847 65.5369 344.869 65.8936C343.908 66.2503 343.123 66.692 342.516 67.2186C341.926 67.7282 341.631 68.3908 341.631 69.2062C341.631 70.0895 341.825 70.8369 342.213 71.4485C342.601 72.043 343.098 72.5272 343.705 72.9009C344.329 73.2576 345.021 73.5124 345.779 73.6653C346.538 73.8182 347.297 73.8947 348.056 73.8947C348.798 73.8947 349.666 73.8182 350.661 73.6653C351.673 73.5124 352.778 73.2746 353.975 72.9519V81.1058C352.558 81.5135 351.243 81.8192 350.029 82.0231C348.815 82.2439 347.609 82.3544 346.412 82.3544C344.338 82.3544 342.373 82.1335 340.518 81.6918C338.663 81.2502 337.027 80.5282 335.611 79.526C334.211 78.5237 333.098 77.2242 332.272 75.6274C331.463 74.0136 331.058 72.043 331.058 69.7158C331.058 68.2039 331.26 66.8704 331.665 65.7152C332.086 64.5431 332.685 63.5069 333.461 62.6066C334.237 61.7062 335.181 60.9248 336.294 60.2623C337.424 59.5998 338.705 59.0137 340.139 58.5041C341.572 57.9945 343.14 57.5443 344.844 57.1536C346.547 56.7629 348.376 56.3977 350.332 56.0579C351.361 55.8711 352.364 55.6502 353.343 55.3954C354.337 55.1406 355.214 54.8349 355.973 54.4781C356.749 54.1044 357.364 53.6712 357.82 53.1786C358.292 52.686 358.528 52.1084 358.528 51.4459C358.528 50.4097 358.317 49.5943 357.896 48.9997C357.474 48.4051 356.918 47.955 356.226 47.6492C355.552 47.3434 354.784 47.1566 353.924 47.0886C353.081 47.0037 352.23 46.9612 351.37 46.9612C350.223 46.9612 349.169 47.0631 348.208 47.267C347.263 47.4708 346.437 47.8446 345.729 48.3882C345.037 48.9148 344.473 49.6452 344.034 50.5795C343.612 51.5138 343.368 52.7114 343.301 54.1723H332.525C332.592 52.0659 332.879 50.1973 333.385 48.5665C333.891 46.9357 334.574 45.5173 335.434 44.3112C336.311 43.0881 337.339 42.0689 338.52 41.2535C339.7 40.4211 340.99 39.7501 342.39 39.2405C343.806 38.7139 345.316 38.3401 346.918 38.1193C348.52 37.8985 350.181 37.7881 351.901 37.7881C353.25 37.7881 354.607 37.873 355.973 38.0429C357.339 38.1957 358.654 38.4675 359.919 38.8583C361.184 39.249 362.364 39.7756 363.46 40.4381C364.573 41.0836 365.535 41.899 366.344 42.8843C367.17 43.8525 367.82 45.0162 368.292 46.3752C368.764 47.7172 369 49.2715 369 51.0382V81.5135H358.528V61.8931Z" fill="#DA634B"/>
</g>
</svg>
